<?xml version="1.0" encoding="UTF-8"?>
<!DOCTYPE svg PUBLIC "-//W3C//DTD SVG 1.1//EN" "http://www.w3.org/Graphics/SVG/1.1/DTD/svg11.dtd">
<!-- Creator: CorelDRAW 2020 (64-Bit) -->
<svg xmlns="http://www.w3.org/2000/svg" xml:space="preserve" width="11.0464mm" height="11.0465mm" version="1.1" style="shape-rendering:geometricPrecision; text-rendering:geometricPrecision; image-rendering:optimizeQuality; fill-rule:evenodd; clip-rule:evenodd"
viewBox="0 0 214.72 214.73"
 xmlns:xlink="http://www.w3.org/1999/xlink"
 xmlns:xodm="http://www.corel.com/coreldraw/odm/2003">
 <defs>
  <style type="text/css">
   <![CDATA[
    .fil4 {fill:#FFEC1B}
    .fil3 {fill:#F1CB25}
    .fil2 {fill:#D67E29}
    .fil1 {fill:#CC566E}
    .fil0 {fill:#C32329}
    .fil9 {fill:#C5A9CD}
    .fil8 {fill:#9C79B0}
    .fil7 {fill:#684781}
    .fil5 {fill:#32964D}
    .fil6 {fill:#008CCF}
   ]]>
  </style>
 </defs>
 <g id="Layer_x0020_1">
  <metadata id="CorelCorpID_0Corel-Layer"/>
  <g id="_1774676245024">
   <rect class="fil0" transform="matrix(0.106131 0.106131 -0.513529 0.513529 204.081 95.795)" width="100.29" height="210.87"/>
   <rect class="fil1" transform="matrix(0.106131 0.106131 -0.513529 0.513529 193.437 85.1511)" width="100.29" height="210.87"/>
   <rect class="fil2" transform="matrix(0.106131 0.106131 -0.513529 0.513529 182.793 74.5072)" width="100.29" height="210.87"/>
   <rect class="fil3" transform="matrix(0.106131 0.106131 -0.513529 0.513529 172.149 63.8632)" width="100.29" height="210.87"/>
   <rect class="fil4" transform="matrix(0.106131 0.106131 -0.513529 0.513529 161.505 53.2193)" width="100.29" height="210.87"/>
   <rect class="fil5" transform="matrix(0.106131 0.106131 -0.513529 0.513529 150.861 42.5754)" width="100.29" height="210.87"/>
   <rect class="fil6" transform="matrix(0.106131 0.106131 -0.513529 0.513529 140.218 31.9315)" width="100.29" height="210.87"/>
   <rect class="fil7" transform="matrix(0.106131 0.106131 -0.513529 0.513529 129.574 21.2875)" width="100.29" height="210.87"/>
   <rect class="fil8" transform="matrix(0.106131 0.106131 -0.513529 0.513529 118.93 10.6436)" width="100.29" height="210.87"/>
   <rect class="fil9" transform="matrix(0.106131 0.106131 -0.513529 0.513529 108.286 -0.00030551)" width="100.29" height="210.87"/>
  </g>
 </g>
</svg>
